<?xml version="1.0" standalone="no"?>
<!DOCTYPE svg PUBLIC "-//W3C//DTD SVG 20010904//EN"
 "http://www.w3.org/TR/2001/REC-SVG-20010904/DTD/svg10.dtd">
<svg version="1.0" xmlns="http://www.w3.org/2000/svg"
 width="198.000000pt" height="198.000000pt" viewBox="0 0 198.000000 198.000000"
 preserveAspectRatio="xMidYMid meet">
<metadata>
Created by potrace 1.11, written by Peter Selinger 2001-2013
</metadata>
<g transform="translate(0.000000,198.000000) scale(0.100000,-0.100000)"
fill="#000000" stroke="none">
<path d="M1425 1340 c-3 -5 -1 -10 4 -10 6 0 11 5 11 10 0 6 -2 10 -4 10 -3 0
-8 -4 -11 -10z"/>
<path d="M1452 1343 c2 -4 -10 -20 -25 -35 -15 -15 -27 -23 -27 -17 0 6 -6 7
-12 3 -9 -5 -9 -3 1 9 7 9 18 14 24 10 6 -3 7 -1 3 5 -12 19 -22 14 -66 -30
-36 -37 -39 -39 -25 -13 l18 30 -26 -30 c-14 -16 -34 -46 -44 -65 -10 -19 -24
-40 -32 -46 -8 -7 -11 -16 -6 -24 5 -8 4 -11 -3 -6 -10 6 -28 -30 -24 -46 5
-19 -17 -6 -23 13 -4 11 -9 19 -11 16 -3 -2 0 -16 5 -31 7 -17 7 -26 1 -26 -6
0 -10 6 -10 14 0 7 -9 42 -20 77 -11 34 -19 67 -17 73 2 5 9 -11 17 -37 7 -26
16 -50 21 -52 4 -3 -3 30 -17 72 -13 43 -24 81 -24 86 0 4 -5 7 -10 7 -7 0 -7
-6 0 -19 5 -11 10 -23 10 -28 -1 -4 -10 9 -21 30 -11 20 -21 37 -23 37 -2 0
-1 -17 1 -37 4 -36 3 -37 -11 -18 -12 16 -17 17 -24 7 -8 -11 -10 -11 -15 2
-4 9 -13 16 -21 16 -18 0 -14 -33 16 -119 21 -62 21 -64 9 -57 -8 6 -18 -31
-27 -103 -3 -19 -6 -37 -9 -41 -4 -6 -18 -94 -18 -117 0 -14 -1 -14 -32 -18
-11 -2 -39 -6 -61 -10 l-41 -7 8 48 c4 27 28 109 53 182 25 73 42 140 39 149
-4 10 -2 14 4 10 6 -4 13 -1 16 6 10 27 -26 13 -44 -17 -28 -47 -23 -22 7 32
26 46 26 47 3 27 l-23 -20 15 25 c20 32 30 70 18 70 -5 0 -9 -4 -9 -8 0 -5 -7
-17 -16 -28 -14 -18 -14 -18 -3 6 7 17 -4 9 -34 -24 -67 -70 -107 -176 -152
-399 -2 -9 1 -15 6 -11 5 3 9 -9 9 -25 0 -17 5 -31 11 -31 6 0 9 -7 5 -15 -3
-9 0 -15 9 -15 9 0 -1 -14 -22 -33 -27 -25 -33 -36 -23 -42 8 -5 11 -4 6 3 -3
6 -2 13 3 16 5 4 8 -2 7 -11 -2 -12 -11 -18 -25 -17 -15 1 -19 -2 -13 -8 6 -6
8 -18 4 -27 -5 -14 -4 -14 14 -2 10 8 35 29 54 45 l35 31 -33 -36 c-28 -30
-31 -38 -18 -48 22 -18 57 -7 130 43 37 25 71 46 76 46 4 0 11 -11 14 -25 8
-31 23 -32 29 -2 2 12 4 7 3 -10 -1 -23 3 -33 12 -33 9 0 13 7 9 20 -3 11 -1
20 4 20 5 0 10 -10 10 -22 1 -15 4 -10 8 12 4 19 4 39 0 43 -4 5 -1 20 6 34 7
14 12 36 10 49 -1 13 2 24 8 24 6 0 7 3 4 7 -4 3 -2 12 4 20 6 7 9 22 6 32 -5
21 25 41 31 22 2 -6 8 -9 12 -6 5 3 7 -4 5 -16 -2 -12 -1 -19 2 -15 4 3 17 -3
29 -15 l22 -21 21 46 c11 26 27 49 35 52 9 3 14 9 12 13 -3 4 -1 13 5 21 6 11
9 6 9 -18 0 -24 -3 -31 -12 -26 -8 5 -7 0 2 -11 13 -17 13 -18 -1 -13 -9 4
-16 1 -16 -7 0 -7 6 -11 12 -9 8 3 10 -5 7 -27 -3 -19 -1 -29 5 -26 5 3 10 -1
10 -9 0 -8 -5 -13 -12 -11 -6 3 -12 -4 -12 -15 -1 -14 1 -17 10 -10 9 8 12 3
14 -15 0 -14 6 -29 13 -33 6 -4 12 -11 12 -16 0 -5 4 -19 9 -32 5 -13 9 -31 9
-39 0 -9 2 -14 5 -12 2 3 9 54 15 115 14 156 21 209 30 212 4 1 5 14 2 29 -3
16 -1 24 5 20 6 -4 8 4 5 20 -3 17 -1 24 6 19 7 -4 9 2 6 18 -2 14 0 27 5 31
6 3 7 13 4 22 -5 12 -3 14 6 8 10 -6 11 -2 6 15 -4 13 -3 20 2 17 5 -4 10 0
10 8 0 8 -5 12 -11 9 -6 -3 -3 1 6 9 10 8 15 17 11 20 -3 4 -13 1 -21 -6 -12
-10 -12 -6 1 20 10 18 17 38 17 44 0 7 7 20 16 30 10 11 12 19 4 24 -6 3 -9 3
-8 -2z m-581 -106 c-10 -9 -11 -8 -5 6 3 10 9 15 12 12 3 -3 0 -11 -7 -18z
m109 -481 c0 -2 -9 -6 -20 -9 -11 -3 -18 -1 -14 4 5 9 34 13 34 5z"/>
<path d="M961 1294 c0 -11 3 -14 6 -6 3 7 2 16 -1 19 -3 4 -6 -2 -5 -13z"/>
<path d="M156 1237 c-18 -27 -27 -34 -23 -19 3 12 1 22 -4 22 -5 0 -9 -5 -9
-11 0 -5 -4 -8 -9 -5 -5 3 -12 -1 -15 -10 -3 -9 -2 -12 5 -8 6 3 5 -3 -2 -14
-7 -12 -17 -19 -21 -16 -4 3 -5 -3 -1 -12 4 -11 2 -15 -4 -11 -28 17 -83 -222
-61 -265 5 -10 5 -18 0 -18 -5 0 -4 -25 1 -55 10 -55 27 -79 20 -27 -3 23 -2
24 6 7 5 -11 10 -28 10 -37 1 -9 6 -29 11 -44 8 -20 14 -24 22 -16 15 15 28
112 15 112 -5 0 -6 8 -2 18 4 9 7 33 7 52 0 31 0 32 7 10 7 -22 8 -20 14 18 4
24 4 49 1 55 -4 7 -3 9 1 5 10 -10 47 92 40 110 -3 7 -1 10 5 7 11 -7 43 52
35 65 -3 5 -1 20 6 32 12 23 12 23 -10 4 -16 -14 -21 -16 -21 -5 0 11 -2 11
-10 -1 -5 -8 -10 -10 -10 -4 0 6 7 17 15 24 9 7 13 15 11 17 -3 3 -1 16 4 29
16 40 -5 35 -34 -9z m35 -110 c-10 -9 -11 -8 -5 6 3 10 9 15 12 12 3 -3 0 -11
-7 -18z"/>
<path d="M760 1268 c0 -6 -3 -8 -7 -4 -4 4 -18 -10 -31 -31 -23 -37 -24 -37
-18 -8 6 27 5 28 -7 13 -8 -10 -16 -16 -18 -13 -3 2 -11 -6 -18 -18 -13 -20
-13 -21 3 -8 14 12 16 12 10 -3 -3 -9 -10 -16 -14 -16 -4 0 -10 -10 -13 -22
-4 -12 -10 -19 -14 -15 -13 14 -45 -107 -48 -183 -2 -41 -4 -79 -6 -85 -5 -19
13 -105 23 -111 6 -4 8 3 4 17 -5 17 -4 20 2 9 5 -8 12 -31 16 -51 4 -22 12
-36 21 -36 8 0 15 4 15 9 0 5 5 6 10 3 6 -3 10 -1 10 4 0 6 -4 11 -8 11 -5 0
-6 22 -2 50 4 31 2 51 -4 54 -7 3 -7 5 1 5 7 1 10 11 7 27 -3 14 -1 23 4 21 4
-3 14 20 21 51 7 31 16 62 19 67 9 15 14 37 14 64 0 14 3 19 7 12 5 -7 14 2
24 24 10 22 13 35 6 35 -7 0 -5 10 5 25 12 18 13 24 4 23 -7 -2 -16 -7 -20
-13 -5 -6 -8 -4 -8 4 0 11 -4 9 -15 -5 -11 -13 -10 -9 2 17 10 20 20 36 23 34
3 -2 5 10 6 26 1 16 0 29 -2 29 -2 0 -4 -5 -4 -12z"/>
<path d="M1583 1258 c-11 -13 -26 -32 -32 -43 -11 -19 -12 -18 -8 6 2 16 -1
26 -9 26 -7 0 -10 -7 -6 -15 3 -10 1 -13 -6 -8 -8 4 -10 2 -6 -7 3 -8 0 -18
-7 -23 -8 -5 -10 -3 -4 6 5 9 4 11 -4 6 -6 -4 -9 -11 -6 -16 7 -11 -5 -41 -15
-35 -22 14 -76 -204 -56 -226 8 -9 8 -10 -2 -4 -16 8 -13 -26 3 -37 6 -5 6 -8
-1 -8 -15 0 2 -101 19 -115 7 -5 18 -22 24 -37 8 -19 17 -26 28 -22 10 4 15 0
15 -12 0 -9 2 -15 4 -13 3 2 1 32 -3 67 -4 37 -4 62 2 62 5 0 4 7 -3 15 -7 9
-8 15 -2 15 5 0 8 10 4 22 -3 12 -1 19 4 15 6 -3 11 6 12 19 1 14 6 33 11 42
5 9 7 30 5 47 -2 23 -1 26 7 15 9 -12 10 -10 6 8 -3 12 -2 20 3 17 10 -6 23
43 14 57 -4 7 -3 8 4 4 15 -9 35 31 37 72 1 32 -8 41 -20 22 -4 -6 -11 -8 -16
-4 -6 3 -3 12 8 21 10 8 12 12 6 8 -9 -4 -11 -1 -7 9 3 9 9 14 13 12 3 -2 6 9
7 25 1 16 0 29 -1 29 -1 0 -11 -10 -22 -22z m13 -140 c-9 -12 -16 -19 -16 -15
0 11 24 47 28 42 2 -2 -3 -14 -12 -27z m-143 -328 c3 -11 1 -18 -4 -14 -5 3
-9 12 -9 20 0 20 7 17 13 -6z"/>
<path d="M360 1258 c-33 -12 -61 -38 -54 -50 3 -5 13 -3 22 4 15 11 6 -3 -27
-42 -2 -3 -1 4 3 15 5 15 4 17 -5 8 -21 -21 -1 -31 41 -21 78 20 104 -4 109
-103 3 -51 -37 -181 -63 -207 -8 -8 -4 7 9 34 13 27 26 63 29 79 6 27 5 26 -8
-6 -7 -19 -23 -54 -35 -77 -12 -24 -19 -47 -16 -51 2 -5 -7 -12 -22 -16 -29
-7 -43 6 -43 43 0 12 -4 22 -10 22 -5 0 -10 8 -10 18 0 14 2 15 10 2 8 -13 10
-12 10 3 0 9 -4 17 -10 17 -5 0 -10 8 -10 18 0 13 2 14 9 4 12 -19 19 26 16
91 -2 38 -1 45 5 27 9 -30 13 -6 3 28 -4 15 -8 19 -13 12 -5 -8 -9 -4 -13 9
-3 12 -1 19 4 15 5 -3 6 2 3 10 -8 21 -24 21 -24 0 0 -8 -4 -13 -9 -10 -5 3
-13 0 -19 -7 -14 -18 -51 -141 -54 -182 -1 -19 -5 -35 -8 -35 -14 0 10 -115
28 -139 26 -35 75 -62 119 -66 30 -3 44 3 82 34 52 44 112 152 135 241 11 44
15 50 18 30 3 -14 6 -1 7 28 1 60 -25 165 -40 157 -5 -4 -9 -2 -9 4 0 5 -16
22 -35 36 -37 29 -86 38 -125 23z m16 -57 c-6 -9 -46 -22 -46 -15 0 3 10 9 23
14 29 11 29 11 23 1z m-90 -128 c-3 -4 -6 -1 -6 6 0 7 -4 9 -10 6 -6 -4 -7 1
-3 11 6 15 7 15 15 -1 6 -9 7 -19 4 -22z m11 -65 c-3 -8 -6 -5 -6 6 -1 11 2
17 5 13 3 -3 4 -12 1 -19z m3 -22 c0 -3 -4 -8 -10 -11 -5 -3 -10 -1 -10 4 0 6
5 11 10 11 6 0 10 -2 10 -4z"/>
<path d="M1770 1258 c-32 -12 -61 -38 -54 -49 3 -5 17 -2 32 7 l27 16 -25 -20
c-13 -11 -28 -18 -32 -16 -12 7 -17 -11 -7 -26 6 -10 12 -11 17 -5 9 12 58 18
88 11 26 -7 44 -56 44 -116 0 -42 -10 -81 -19 -76 -3 2 -6 -11 -7 -29 -1 -66
-91 -162 -115 -124 -5 8 -9 27 -9 42 0 16 -4 26 -10 22 -5 -3 -10 1 -10 10 0
9 4 14 9 11 10 -7 22 102 16 146 -5 27 -4 30 5 13 9 -18 10 -17 5 5 -2 14 -5
29 -5 33 0 5 -4 5 -10 2 -10 -6 -14 7 -11 34 2 7 -3 11 -10 9 -21 -7 -48 -49
-67 -105 -10 -29 -21 -51 -23 -49 -2 2 -4 -17 -3 -42 0 -26 -2 -51 -5 -57 -8
-16 0 -76 15 -116 17 -41 71 -76 132 -85 36 -5 43 -2 84 39 59 57 97 123 125
216 24 83 30 82 12 -1 -20 -89 -90 -205 -144 -236 -15 -8 -16 -11 -5 -12 25 0
86 70 120 137 51 104 62 210 32 301 -8 23 -19 42 -25 42 -6 0 -7 3 -4 7 4 3
-11 19 -33 36 -43 31 -90 40 -130 25z m7 -64 c-3 -3 -12 -4 -19 -1 -8 3 -5 6
6 6 11 1 17 -2 13 -5z m-78 -119 c0 -5 -4 -3 -9 5 -5 8 -9 22 -9 30 0 16 17
-16 18 -35z m4 -86 c-6 -6 -7 3 -4 23 4 28 6 29 9 9 2 -13 0 -27 -5 -32z m-6
-51 c-3 -7 -5 -2 -5 12 0 14 2 19 5 13 2 -7 2 -19 0 -25z"/>
<path d="M543 940 c-6 -25 -14 -54 -17 -65 -4 -11 3 -1 14 23 12 24 20 53 18
65 -2 15 -7 8 -15 -23z"/>
<path d="M1816 943 c-4 -15 -18 -46 -32 -68 l-25 -40 25 30 c26 30 52 92 43
101 -2 3 -8 -8 -11 -23z"/>
<path d="M481 804 c-14 -25 -41 -57 -60 -70 -20 -13 -29 -24 -21 -24 22 1 64
40 94 87 28 45 30 53 18 53 -4 0 -18 -21 -31 -46z"/>
</g>
</svg>
